<?xml version="1.0" encoding="utf-8"?>
<!-- Generator: Adobe Illustrator 25.0.0, SVG Export Plug-In . SVG Version: 6.00 Build 0)  -->
<svg version="1.1" id="Layer_1" xmlns="http://www.w3.org/2000/svg" xmlns:xlink="http://www.w3.org/1999/xlink" x="0px" y="0px"
	 viewBox="0 0 24 24" style="enable-background:new 0 0 24 24;" xml:space="preserve">
<style type="text/css">
	.st0{fill:#199BB5;}
</style>
<g>
	<path class="st0" d="M12,21.4h9.4v2.4H12C5.5,23.8,0.2,18.5,0.2,12S5.5,0.2,12,0.2S23.8,5.5,23.8,12c0,2.6-0.8,5-2.4,7.1h-3.2
		c3.9-3.4,4.3-9.4,0.8-13.3S9.7,1.5,5.8,4.9s-4.3,9.4-0.8,13.3C6.7,20.3,9.3,21.4,12,21.4z M12,9.6c-1.3,0-2.4-1.1-2.4-2.4
		s1.1-2.4,2.4-2.4s2.4,1.1,2.4,2.4S13.3,9.6,12,9.6z M7.3,14.4c-1.3,0-2.4-1.1-2.4-2.4S6,9.6,7.3,9.6s2.4,1.1,2.4,2.4
		S8.6,14.4,7.3,14.4z M16.7,14.4c-1.3,0-2.4-1.1-2.4-2.4s1.1-2.4,2.4-2.4c1.3,0,2.4,1.1,2.4,2.4S18,14.4,16.7,14.4z M12,19.1
		c-1.3,0-2.4-1.1-2.4-2.4s1.1-2.4,2.4-2.4s2.4,1.1,2.4,2.4S13.3,19.1,12,19.1z"/>
</g>
</svg>
