<svg width="18" height="18" viewBox="0 0 18 18" fill="none" xmlns="http://www.w3.org/2000/svg">
<path fill-rule="evenodd" clip-rule="evenodd" d="M7.00297 0C7.55361 0 8 0.447257 8 0.99703V7.00297C8 7.55361 7.55274 8 7.00297 8H0.99703C0.446386 8 0 7.55274 0 7.00297V0.99703C0 0.446386 0.447257 0 0.99703 0H7.00297ZM18 0.99703C18 0.447257 17.5536 0 17.003 0H10.997C10.4473 0 10 0.446386 10 0.99703V7.00297C10 7.55274 10.4464 8 10.997 8H17.003C17.5527 8 18 7.55361 18 7.00297V0.99703ZM12 2H16V6H12V2ZM2 2H6V6H2V2ZM0 10.997C0 10.4464 0.447257 10 0.99703 10H7.00297C7.55361 10 8 10.4473 8 10.997V17.003C8 17.5536 7.55274 18 7.00297 18H0.99703C0.446386 18 0 17.5527 0 17.003V10.997ZM2 16V12H6V16H2ZM10 10.997C10 10.4464 10.4473 10 10.997 10H17.003C17.5536 10 18 10.4473 18 10.997V17.003C18 17.5536 17.5527 18 17.003 18H10.997C10.4464 18 10 17.5527 10 17.003V10.997ZM12 16V12H16V16H12Z" fill="#50555B"/>
</svg>
