<svg width="18" height="18" viewBox="0 0 18 18" fill="none" xmlns="http://www.w3.org/2000/svg">
<path fill-rule="evenodd" clip-rule="evenodd" d="M9 18C4.02944 18 0 13.9706 0 9C0 4.02944 4.02944 0 9 0C13.9706 0 18 4.02944 18 9C18 13.9706 13.9706 18 9 18ZM8.1 8.1V5.39586C8.1 4.90109 8.49948 4.5 9 4.5C9.49706 4.5 9.9 4.9042 9.9 5.39586V8.1H12.6041C13.0989 8.1 13.5 8.49948 13.5 9C13.5 9.49706 13.0958 9.9 12.6041 9.9H9.9V12.6041C9.9 13.0989 9.50052 13.5 9 13.5C8.50294 13.5 8.1 13.0958 8.1 12.6041V9.9H5.39586C4.90109 9.9 4.5 9.50052 4.5 9C4.5 8.50294 4.9042 8.1 5.39586 8.1H8.1ZM16.2 8.99999C16.2 12.9764 12.9765 16.2 9.00002 16.2C5.02357 16.2 1.80002 12.9764 1.80002 8.99999C1.80002 5.02354 5.02357 1.79999 9.00002 1.79999C12.9765 1.79999 16.2 5.02354 16.2 8.99999Z" fill="#50555B"/>
</svg>
