<svg width="32" height="32" viewBox="0 0 32 32" fill="none" xmlns="http://www.w3.org/2000/svg">
<path fill-rule="evenodd" clip-rule="evenodd" d="M8 9C8 8.44772 8.44772 8 9 8H25C25.5523 8 26 8.44772 26 9C26 9.55228 25.5523 10 25 10H9C8.44772 10 8 9.55228 8 9ZM8 16C8 15.4477 8.44772 15 9 15H25C25.5523 15 26 15.4477 26 16C26 16.5523 25.5523 17 25 17H9C8.44772 17 8 16.5523 8 16ZM9 22C8.44772 22 8 22.4477 8 23C8 23.5523 8.44772 24 9 24H25C25.5523 24 26 23.5523 26 23C26 22.4477 25.5523 22 25 22H9Z" fill="white"/>
</svg>
