<svg width="34" height="23" viewBox="0 0 34 23" fill="none" xmlns="http://www.w3.org/2000/svg">
<path fill-rule="evenodd" clip-rule="evenodd" d="M4.33333 22.0286H29.6667C31.504 22.0286 33 20.5539 33 18.7429V4.28571C33 2.47463 31.504 1 29.6667 1H4.33333C2.496 1 1 2.47463 1 4.28571V18.7429C1 20.5539 2.496 22.0286 4.33333 22.0286ZM2.33385 4.28575C2.33385 3.19884 3.23119 2.31432 4.33385 2.31432H29.6672C30.7699 2.31432 31.6672 3.19884 31.6672 4.28575V18.7429C31.6672 19.8298 30.7699 20.7143 29.6672 20.7143H4.33385C3.23119 20.7143 2.33385 19.8298 2.33385 18.7429V4.28575Z" fill="white" stroke="white" stroke-width="0.449691"/>
<path d="M17.0005 12.8858C16.2714 12.8858 15.5409 12.6721 14.9045 12.2434L4.03196 4.93251C3.72969 4.72925 3.65279 4.32403 3.85829 4.02695C4.06378 3.72988 4.47609 3.653 4.77969 3.85757L15.6522 11.1685C16.4702 11.7183 17.5282 11.7183 18.3475 11.1685L29.22 3.85757C29.5236 3.65561 29.936 3.72988 30.1414 4.02695C30.3483 4.32403 30.2714 4.72925 29.9691 4.93251L19.0966 12.2434C18.4602 12.6721 17.7297 12.8858 17.0005 12.8858Z" fill="white" stroke="white" stroke-width="0.449691"/>
<path d="M4.39745 19.2856C4.20939 19.2856 4.02395 19.2019 3.89466 19.0387C3.6635 18.748 3.70138 18.3146 3.97824 18.0719L11.814 11.215C12.0908 10.9736 12.5035 11.0134 12.7347 11.3028C12.9658 11.5935 12.9279 12.0269 12.6511 12.2696L4.81535 19.1265C4.6939 19.2335 4.54502 19.2856 4.39745 19.2856Z" fill="white" stroke="white" stroke-width="0.449691"/>
<path d="M29.6027 19.2856C29.4551 19.2856 29.3076 19.2335 29.1848 19.1265L21.3491 12.2696C21.0722 12.0269 21.0344 11.5949 21.2655 11.3028C21.4967 11.0134 21.908 10.9736 22.1862 11.215L30.0219 18.0719C30.2988 18.3146 30.3367 18.7466 30.1055 19.0387C29.9749 19.2019 29.7895 19.2856 29.6027 19.2856Z" fill="white" stroke="white" stroke-width="0.449691"/>
</svg>
