<svg width="16" height="16" viewBox="0 0 16 16" fill="none" xmlns="http://www.w3.org/2000/svg">
<path fill-rule="evenodd" clip-rule="evenodd" d="M8 16C3.58172 16 0 12.4183 0 8C0 3.58172 3.58172 0 8 0C12.4183 0 16 3.58172 16 8C16 12.4183 12.4183 16 8 16ZM7.2 7.2V4.79632C7.2 4.35652 7.55509 4 8 4C8.44183 4 8.8 4.35928 8.8 4.79632V7.2H11.2037C11.6435 7.2 12 7.55509 12 8C12 8.44183 11.6407 8.8 11.2037 8.8H8.8V11.2037C8.8 11.6435 8.44491 12 8 12C7.55817 12 7.2 11.6407 7.2 11.2037V8.8H4.79632C4.35652 8.8 4 8.44491 4 8C4 7.55817 4.35928 7.2 4.79632 7.2H7.2ZM14.4 8.00002C14.4 11.5346 11.5346 14.4 8.00002 14.4C4.46539 14.4 1.60002 11.5346 1.60002 8.00002C1.60002 4.46539 4.46539 1.60002 8.00002 1.60002C11.5346 1.60002 14.4 4.46539 14.4 8.00002Z" fill="#199BB5"/>
</svg>
