<svg width="32" height="32" viewBox="0 0 32 32" fill="none" xmlns="http://www.w3.org/2000/svg">
<path fill-rule="evenodd" clip-rule="evenodd" d="M21.0938 19.5395C22.2881 18.0121 23 16.0892 23 14C23 9.02944 18.9706 5 14 5C9.02944 5 5 9.02944 5 14C5 18.9706 9.02944 23 14 23C16.0892 23 18.0121 22.2881 19.5395 21.0938L25.3862 26.9405C25.7768 27.331 26.4099 27.331 26.8004 26.9405L26.9405 26.8004C27.331 26.4099 27.331 25.7768 26.9405 25.3862L21.0938 19.5395ZM20.2412 11.4662C21.2827 13.985 20.6953 16.881 18.7537 18.7995C16.8122 20.7181 13.9002 21.2801 11.3797 20.2226C8.85923 19.1651 7.22851 16.6973 7.25021 13.9732C7.26003 10.2641 10.2763 7.25977 14.0001 7.25C16.735 7.25009 19.1996 8.94734 20.2412 11.4662Z" fill="#199BB5"/>
<mask id="mask0_355_548" style="mask-type:alpha" maskUnits="userSpaceOnUse" x="5" y="5" width="23" height="23">
<path fill-rule="evenodd" clip-rule="evenodd" d="M21.0938 19.5395C22.2881 18.0121 23 16.0892 23 14C23 9.02944 18.9706 5 14 5C9.02944 5 5 9.02944 5 14C5 18.9706 9.02944 23 14 23C16.0892 23 18.0121 22.2881 19.5395 21.0938L25.3862 26.9405C25.7768 27.331 26.4099 27.331 26.8004 26.9405L26.9405 26.8004C27.331 26.4099 27.331 25.7768 26.9405 25.3862L21.0938 19.5395ZM20.2412 11.4662C21.2827 13.985 20.6953 16.881 18.7537 18.7995C16.8122 20.7181 13.9002 21.2801 11.3797 20.2226C8.85923 19.1651 7.22851 16.6973 7.25021 13.9732C7.26003 10.2641 10.2763 7.25977 14.0001 7.25C16.735 7.25009 19.1996 8.94734 20.2412 11.4662Z" fill="white"/>
</mask>
<g mask="url(#mask0_355_548)">
<rect width="32" height="32" fill="#199BB5"/>
</g>
</svg>
