<svg width="24" height="26" viewBox="0 0 24 26" fill="none" xmlns="http://www.w3.org/2000/svg">
<path d="M14.5059 14.8571H9.23327C8.28371 14.8571 0 14.9933 0 19.5V26H23.7391V19.5C23.7391 14.9933 15.4554 14.8571 14.5059 14.8571ZM11.8696 13C15.4923 13 18.4291 10.0899 18.4291 6.5C18.4291 2.91015 15.4923 0 11.8696 0C8.24685 0 5.31007 2.91015 5.31007 6.5C5.31007 10.0899 8.24685 13 11.8696 13ZM14.5059 16.7143C16.9048 16.7143 21.865 17.3952 21.865 19.5V24.1429H1.87414V19.5C1.87414 17.3952 6.87185 16.7143 9.23327 16.7143H14.5059ZM11.8696 1.82V1.85714C13.7832 1.8572 15.5076 3.00151 16.2364 4.75487C16.9651 6.50823 16.5541 8.52406 15.1956 9.85956C13.8371 11.1951 11.7996 11.5862 10.0361 10.8501C8.27254 10.1141 7.13154 8.39619 7.14673 6.5C7.15359 3.91813 9.26406 1.8268 11.8696 1.82Z" fill="white"/>
</svg>
